Coordinates
version=1
nRows=14
nColumns=33
inDegrees=yes

Units are S.I. units (second, meters, Newtons, ...)
Angles are in degrees.

endheader
time	ground_thorax_rot_x	ground_thorax_rot_y	ground_thorax_rot_z	ground_thorax_tx	ground_thorax_ty	ground_thorax_tz	clav_prot_r	clav_elev_r	scapula_abduction_r	scapula_elevation_r	scapula_upward_rot_r	scapula_winging_r	shoulder_elv_r	plane_of_elev_r	axial_rot_r	elbow_flexion_r	pro_sup_r	wrist_flex_r	wrist_dev_r	clav_prot_l	clav_elev_l	scapula_abduction_l	scapula_elevation_l	scapula_upward_rot_l	scapula_winging_l	shoulder_elv_l	plane_of_elev_l	axial_rot_l	elbow_flexion_l	pro_sup_l	wrist_flex_l	wrist_dev_l
      5.45000000	    -39.68542842	     -7.16865555	     14.62567223	   -111.28720995	    781.57046398	      5.18636459	     -7.02903462	    -45.00000000	     45.00000000	    -45.00000000	     23.90276795	  -3351.56059246	  -2097.69390713	     21.08007809	   -179.99999979	   2525.71208380	    248.93609704	     16.45027896	     10.59253899	     19.63245129	     40.91621964	    -45.00000000	    -43.12804471	    -35.31241895	   1878.72511251	  -3532.40354709	     26.36899832	    -27.23298592	    729.61429608	   -334.39157267	      7.36887311	    -19.51629320
      5.46000000	    -39.78540360	     -7.26446708	     14.77636606	   -113.24620734	    782.59669616	      5.01384925	     -7.08705088	    -45.00000000	     45.00000000	    -45.00000000	     23.80026749	  -3351.74182426	  -2097.56227164	     21.26292266	   -179.99999979	   2525.82951931	    248.32261178	     16.50973339	     10.68343786	     20.24993254	     41.04724606	    -45.00000000	    -43.62034428	    -36.24945494	   1878.68662335	  -3532.31176387	     26.75984682	    -26.27865233	    729.57843676	   -334.70757740	      7.12929700	    -19.44090392
      5.47000000	    -39.85837731	     -7.46725087	     15.05445298	   -115.22195423	    783.65106419	      4.84315445	     -7.00232252	    -45.00000000	     45.00000000	    -45.00000000	     23.29865220	  -3351.83890207	  -2097.47108338	     21.23695947	   -179.99999979	   2525.69651544	    247.39313125	     16.64067938	     10.73806486	     20.76731820	     40.73927573	    -45.00000000	    -44.09477017	    -37.70246589	   1878.25427487	  -3531.71770513	     26.94753659	    -24.50341536	    729.64468813	   -335.15209782	      7.24252004	    -19.53532048
      5.48000000	    -39.95714517	     -7.24120370	     14.83578305	   -117.22352546	    784.73498036	      4.67391457	     -6.77236023	    -45.00000000	     45.00000000	    -45.00000000	     23.64694516	  -3351.80220760	  -2097.23750516	     21.24734212	   -179.99999979	   2525.74039595	    246.91675919	     16.70120761	     10.80910640	     19.89028010	     41.25853639	    -44.97403688	    -44.15313986	    -36.75425873	   1878.65689821	  -3531.96124281	     26.66953936	    -25.62333045	    729.83302935	   -335.04832373	      7.20853587	    -19.62679306
      5.49000000	    -40.02858773	     -7.24336452	     14.79679066	   -119.25473279	    785.84054035	      4.50689597	     -6.76302445	    -45.00000000	     45.00000000	    -45.00000000	     23.69254566	  -3351.82545980	  -2097.07044731	     21.33656459	   -179.99999979	   2525.82779431	    246.42442697	     16.77900639	     10.89093038	     19.92366449	     41.41493856	    -44.83649090	    -44.38866760	    -36.74020223	   1878.79641137	  -3531.92071625	     26.70468941	    -25.66675186	    729.93051742	   -335.12705483	      7.05572236	    -19.64381452
      5.50000000	    -40.03428889	     -7.68567865	     15.31750489	   -121.31665473	    786.96293904	      4.34240768	     -6.77900679	    -45.00000000	     45.00000000	    -45.00000000	     23.07225676	  -3352.03963330	  -2096.94787453	     21.47164656	   -179.99999979	   2525.81302834	    245.70655456	     16.83587139	     10.94517153	     20.74476849	     41.24634430	    -44.51732655	    -45.00000000	    -38.40678377	   1878.33609048	  -3531.49338034	     27.17559048	    -23.98919967	    729.89248780	   -335.48024467	      6.75843234	    -19.55481650
      5.51000000	    -40.12416280	     -7.50825173	     15.09034988	   -123.40605917	    788.10145892	      4.18049456	     -6.45675697	    -45.00000000	     45.00000000	    -45.00000000	     23.30629354	  -3351.93818990	  -2096.74621894	     21.40769538	   -179.99999979	   2525.74427327	    245.21440894	     16.97282096	     11.01231314	     19.80570039	     41.61386759	    -44.35788907	    -45.00000000	    -37.44667809	   1878.65539372	  -3531.55114382	     26.88902638	    -24.79527287	    730.05430464	   -335.36976726	      6.95568097	    -19.73363662
      5.52000000	    -40.09376433	     -7.56236013	     15.11449010	   -125.52518381	    789.25197806	      4.02034568	     -6.37912392	    -45.00000000	     45.00000000	    -45.00000000	     23.17809227	  -3351.91399411	  -2096.56122866	     21.52805164	   -179.99999979	   2525.72893340	    244.70827901	     17.09372185	     11.08891131	     19.77905763	     41.62117319	    -44.22829990	    -45.00000000	    -37.45693283	   1878.88234443	  -3531.41673808	     26.87203466	    -24.80138327	    730.12233440	   -335.41656976	      6.83427666	    -19.76071906
      5.53000000	    -40.05809870	     -7.57879609	     15.17530133	   -127.67068458	    790.41451133	      3.86115851	     -6.27521771	    -45.00000000	     45.00000000	    -45.00000000	     22.96108501	  -3351.87894978	  -2096.32017308	     21.65243520	   -179.99999979	   2525.70511203	    244.17873076	     17.19822563	     11.16028023	     19.74157931	     41.55904843	    -44.10986291	    -45.00000000	    -37.53988047	   1879.05942607	  -3531.24389181	     26.91561918	    -24.56640105	    730.18071662	   -335.50149645	      6.72039210	    -19.78384142
      5.54000000	    -40.04478704	     -7.58126882	     15.14730558	   -129.83610942	    791.58714198	      3.70198227	     -6.14629284	    -45.00000000	     45.00000000	    -45.00000000	     22.85977658	  -3351.85954383	  -2096.15614460	     21.71020125	   -179.99999979	   2525.58456816	    243.63569539	     17.33903446	     11.22089823	     19.54863007	     41.58129444	    -43.88952150	    -45.00000000	    -37.37658216	   1879.22945023	  -3531.12245011	     26.88715951	    -24.56458026	    730.23652176	   -335.54946689	      6.66724293	    -19.83154851
      5.55000000	    -40.00432916	     -7.63273172	     15.22580963	   -132.02288541	    792.77263459	      3.54226530	     -6.00965932	    -45.00000000	     45.00000000	    -45.00000000	     22.55362543	  -3351.81099223	  -2095.93427546	     21.82633834	   -179.99999979	   2525.55957527	    243.07001730	     17.43621970	     11.29583314	     19.48265014	     41.49752787	    -43.79997044	    -45.00000000	    -37.55811566	   1879.39231074	  -3530.91862690	     26.88326042	    -24.31427324	    730.29723386	   -335.64983668	      6.54516634	    -19.84909429
      5.56000000	    -39.99188334	     -7.67471941	     15.29292068	   -134.22160438	    793.96757583	      3.38283221	     -5.90947877	    -45.00000000	     45.00000000	    -45.00000000	     22.34938356	  -3351.77519690	  -2095.72934043	     21.90100401	   -179.99999979	   2525.56550002	    242.43634664	     17.49278997	     11.36651898	     19.55981831	     41.30363054	    -43.80512650	    -45.00000000	    -37.82297014	   1879.61872868	  -3530.73488483	     26.91292579	    -24.03634904	    730.33749253	   -335.76888170	      6.42022646	    -19.85072741
      5.57000000	    -39.97346343	     -7.59555810	     15.18614832	   -136.43098643	    795.17341595	      3.22515318	     -5.75791454	    -45.00000000	     45.00000000	    -45.00000000	     22.29861464	  -3351.73238900	  -2095.53705062	     21.99249108	   -179.99999979	   2525.47117192	    241.83932445	     17.63160165	     11.44120665	     19.30995659	     41.45236538	    -43.58766940	    -45.00000000	    -37.52594964	   1879.81792665	  -3530.65271588	     26.90454903	    -24.13394748	    730.40012275	   -335.82631134	      6.41049313	    -19.91347129
      5.58000000	    -39.78673386	     -8.02165992	     15.70383829	   -138.65122260	    796.39037974	      3.07107083	     -5.46374109	    -45.00000000	     45.00000000	    -45.00000000	     21.24498637	  -3351.69672225	  -2095.33705376	     22.13523839	   -179.99999979	   2525.33369981	    240.84718661	     17.68035489	     11.50828485	     19.59882204	     40.50972648	    -43.61017876	    -45.00000000	    -39.22932031	   1879.78439784	  -3530.06188709	     27.13061208	    -22.82905299	    730.46377149	   -336.18208246	      6.21415091	    -19.86237200
